<svg xmlns="http://www.w3.org/2000/svg" viewBox="0 0 224.63 271.53"><path d="M213.72,8.92,111.32.68l.08.11C98-2,84.15,2.66,76.58,13.87L41.84,65.3,5.75,115.78c-7.87,11-7.42,25.59-.12,37.19l-.13,0,43.41,93.11c3.62,7.75,14.32,9.35,19,2.83l49.08-69,29.79-41.7,28.7-42.45L223,25.7c4.5-6.62-.73-16.1-9.26-16.78" style="fill:#f8faff"/><path d="M82.29,254.75l52.28-76.19c3.5-5.09,10.14-6.61,14.84-3.39l70.27,48.22c7.58,5.2,4.55,17.75-4.8,19.88l-122.54,28c-9.35,2.13-15.69-8.28-10-16.5" style="fill:#f8faff"/></svg>